<svg width="16" height="16" viewBox="0 0 16 16" fill="none" xmlns="http://www.w3.org/2000/svg">
<path d="M8.66658 10.6666C8.66658 11.0348 8.36811 11.3333 7.99992 11.3333C7.63173 11.3333 7.33326 11.0348 7.33326 10.6666C7.33326 10.2984 7.63173 9.99996 7.99992 9.99996C8.36811 9.99996 8.66658 10.2984 8.66658 10.6666Z" fill="#C2C4C8" fill-opacity="0.88"/>
<path d="M8.6 5.33329C8.6 5.00192 8.33137 4.73329 8 4.73329C7.66863 4.73329 7.4 5.00192 7.4 5.33329V8.33329C7.4 8.66466 7.66863 8.93329 8 8.93329C8.33137 8.93329 8.6 8.66466 8.6 8.33329V5.33329Z" fill="#C2C4C8" fill-opacity="0.88"/>
<path fill-rule="evenodd" clip-rule="evenodd" d="M1.39996 8.00002C1.39996 4.35495 4.35487 1.40002 7.99994 1.40002C11.645 1.40002 14.5999 4.35495 14.5999 8.00002C14.5999 11.6451 11.645 14.6 7.99994 14.6C4.35487 14.6 1.39996 11.6451 1.39996 8.00002ZM7.99994 2.60002C5.01761 2.60002 2.59996 5.01769 2.59996 8.00002C2.59996 10.9824 5.01761 13.4 7.99994 13.4C10.9823 13.4 13.3999 10.9824 13.3999 8.00002C13.3999 5.01769 10.9823 2.60002 7.99994 2.60002Z" fill="#C2C4C8" fill-opacity="0.88"/>
</svg>
