<svg preserveAspectRatio="none" width="100%" height="100%" overflow="visible" style="display: block;" viewBox="0 0 25.1325 17.5464" fill="none" xmlns="http://www.w3.org/2000/svg">
<path id="&#226;&#128;&#156;" d="M19.5733 17.5464C17.7588 17.5464 16.369 16.948 15.4038 15.7513C14.4387 14.5545 13.9561 13.0488 13.9561 11.2344C13.9561 9.18824 14.3614 7.43167 15.1722 5.96464C15.9829 4.459 16.9867 3.22361 18.1834 2.25846C19.3802 1.2547 20.4998 0.501879 21.5422 0L22.4108 1.15818C21.4456 1.58285 20.5191 2.16194 19.6312 2.89545C18.7432 3.62897 18.0097 4.42039 17.4306 5.26972C16.8901 6.11906 16.6199 6.91048 16.6199 7.64399C16.6199 7.91424 16.6778 8.10727 16.7936 8.22309C16.948 8.3389 17.1025 8.39681 17.2569 8.39681C17.4885 8.39681 17.836 8.26169 18.2993 7.99145C18.7625 7.6826 19.4574 7.52818 20.384 7.52818C21.7352 7.52818 22.8548 7.95285 23.7427 8.80218C24.6693 9.6129 25.1325 10.7904 25.1325 12.3346C25.1325 13.7631 24.65 14.9984 23.6848 16.0408C22.7583 17.0446 21.3877 17.5464 19.5733 17.5464ZM5.61718 17.5464C3.80269 17.5464 2.41288 16.948 1.44773 15.7513C0.482576 14.5545 0 13.0488 0 11.2344C0 9.18824 0.405363 7.43167 1.21609 5.96464C2.02682 4.459 3.03057 3.22361 4.22736 2.25846C5.42415 1.2547 6.54372 0.501879 7.58609 0L8.45472 1.15818C7.48957 1.58285 6.56303 2.16194 5.67509 2.89545C4.78715 3.62897 4.05363 4.42039 3.47454 5.26972C2.93406 6.11906 2.66382 6.91048 2.66382 7.64399C2.66382 7.91424 2.72173 8.10727 2.83754 8.22309C2.99197 8.3389 3.14639 8.39681 3.30082 8.39681C3.53245 8.39681 3.87991 8.26169 4.34318 7.99145C4.80645 7.6826 5.50136 7.52818 6.4279 7.52818C7.77912 7.52818 8.89869 7.95285 9.78663 8.80218C10.7132 9.6129 11.1764 10.7904 11.1764 12.3346C11.1764 13.7631 10.6939 14.9984 9.72872 16.0408C8.80218 17.0446 7.43166 17.5464 5.61718 17.5464Z" fill="var(--fill-0, #58CF04)"/>
</svg>
